<?xml version="1.0" encoding="UTF-8" standalone="no"?>
<svg
   width="640"
   height="167.99998"
   viewBox="0 0 169.33333 44.449997"
   version="1.1"
   id="svg8"
   inkscape:version="1.4.2 (ebf0e940d0, 2025-05-08)"
   sodipodi:docname="banner.svg"
   inkscape:export-filename="/home/antgon/python/microdaq/ui/icon.png"
   inkscape:export-xdpi="96"
   inkscape:export-ydpi="96"
   xmlns:inkscape="http://www.inkscape.org/namespaces/inkscape"
   xmlns:sodipodi="http://sodipodi.sourceforge.net/DTD/sodipodi-0.dtd"
   xmlns="http://www.w3.org/2000/svg"
   xmlns:svg="http://www.w3.org/2000/svg"
   xmlns:rdf="http://www.w3.org/1999/02/22-rdf-syntax-ns#"
   xmlns:cc="http://creativecommons.org/ns#"
   xmlns:dc="http://purl.org/dc/elements/1.1/">
  <defs
     id="defs2">
    <inkscape:path-effect
       effect="simplify"
       id="path-effect19"
       is_visible="true"
       lpeversion="1.3"
       threshold="10.869565"
       steps="1"
       smooth_angles="360"
       helper_size="0"
       simplify_individual_paths="false"
       simplify_just_coalesce="false" />
  </defs>
  <sodipodi:namedview
     id="base"
     pagecolor="#ffffff"
     bordercolor="#666666"
     borderopacity="1.0"
     inkscape:pageopacity="0.0"
     inkscape:pageshadow="2"
     inkscape:zoom="0.9899495"
     inkscape:cx="239.91123"
     inkscape:cy="13.131983"
     inkscape:document-units="mm"
     inkscape:current-layer="layer1"
     inkscape:document-rotation="0"
     showgrid="false"
     inkscape:snap-global="false"
     inkscape:window-width="1920"
     inkscape:window-height="1011"
     inkscape:window-x="0"
     inkscape:window-y="0"
     inkscape:window-maximized="1"
     inkscape:snap-bbox="true"
     inkscape:snap-text-baseline="true"
     units="px"
     inkscape:showpageshadow="2"
     inkscape:pagecheckerboard="0"
     inkscape:deskcolor="#d1d1d1" />
  <metadata
     id="metadata5">
    <rdf:RDF>
      <cc:Work
         rdf:about="">
        <dc:format>image/svg+xml</dc:format>
        <dc:type
           rdf:resource="http://purl.org/dc/dcmitype/StillImage" />
      </cc:Work>
    </rdf:RDF>
  </metadata>
  <g
     inkscape:label="Layer 1"
     inkscape:groupmode="layer"
     id="layer1"
     transform="translate(-40.011368,-180.5396)">
    <rect
       style="fill:#325fa2;stroke:none;stroke-width:0.14111;stroke-linecap:square"
       id="rect1"
       width="169.33333"
       height="44.449997"
       x="40.011368"
       y="180.5396"
       rx="2.1733601"
       ry="2.1733601" />
    <text
       xml:space="preserve"
       style="font-style:normal;font-variant:normal;font-weight:normal;font-stretch:normal;font-size:14.1111px;line-height:1.05;font-family:'Source Sans 3';-inkscape-font-specification:'Source Sans 3, ';text-decoration-color:#000000;letter-spacing:0px;word-spacing:0px;fill:#ffffff;stroke-width:0.264583;stroke-linecap:square;stroke-linejoin:round;-inkscape-stroke:none;stop-color:#000000"
       x="44.145912"
       y="207.39304"
       id="text1"><tspan
         sodipodi:role="line"
         id="tspan1"
         style="font-style:normal;font-variant:normal;font-weight:normal;font-stretch:normal;font-size:14.1111px;font-family:'Source Sans 3';-inkscape-font-specification:'Source Sans 3, ';stroke-width:0.264583;fill:#ffffff"
         x="44.145912"
         y="207.39304">microPyGraph</tspan></text>
    <path
       id="rect17"
       style="fill:#009e73;stroke:none;stroke-width:0.141112;stroke-linecap:square"
       d="m 174.46826,185.83126 c -2.37216,0 -4.28191,1.90975 -4.28191,4.28191 v 25.30285 c 0,2.37216 1.90975,4.28191 4.28191,4.28191 h 4.62194 v -3.16828 c 0,-0.93187 0.75019,-1.68207 1.68207,-1.68207 0.93188,0 1.68207,0.75023 1.68207,1.68207 v 3.16828 h 2.98328 v -3.16828 c 0,-0.93187 0.75018,-1.68207 1.68206,-1.68207 0.93188,0 1.68207,0.75023 1.68207,1.68207 v 3.16828 h 2.9838 v -3.16828 c 0,-0.93187 0.75019,-1.68207 1.68207,-1.68207 0.93188,0 1.68207,0.75023 1.68207,1.68207 v 3.16828 h 4.62142 c 2.37216,0 4.28191,-1.90975 4.28191,-4.28191 v -25.30285 c 0,-2.37216 -1.90975,-4.28191 -4.28191,-4.28191 h -4.62142 v 3.16829 c 0,0.93184 -0.75019,1.68206 -1.68207,1.68206 -0.93188,0 -1.68207,-0.75019 -1.68207,-1.68206 v -3.16829 h -2.9838 v 3.16829 c 0,0.93184 -0.75019,1.68206 -1.68207,1.68206 -0.93188,0 -1.68206,-0.75019 -1.68206,-1.68206 v -3.16829 h -2.98328 v 3.16829 c 0,2.20152 -3.36414,2.20156 -3.36414,0 v -3.16829 z" />
    <path
       id="path17"
       style="fill:#f0e442;fill-opacity:1;stroke:none;stroke-width:0.599999"
       d="m 193.46736,190.68161 c -0.93188,0 -1.68207,-0.7502 -1.68207,-1.68207 v -3.16828 h 0.46767 a 1.2143815,1.2143815 0 0 0 0,5.1e-4 1.2143815,1.2143815 0 0 0 1.2144,1.21388 1.2143815,1.2143815 0 0 0 1.21439,-1.21388 1.2143815,1.2143815 0 0 0 0,-5.1e-4 h 0.46768 v 3.16828 c 0,0.93184 -0.75019,1.68207 -1.68207,1.68207 z m 0,-0.46768 a 1.2143815,1.2143815 0 0 0 1.21439,-1.21439 1.2143815,1.2143815 0 0 0 -1.21439,-1.2144 1.2143815,1.2143815 0 0 0 -1.2144,1.2144 1.2143815,1.2143815 0 0 0 1.2144,1.21439 z m -6.34768,0.46768 c -0.93188,0 -1.68207,-0.7502 -1.68207,-1.68207 v -3.16828 h 0.46767 a 1.2143815,1.2143815 0 0 0 0,5.1e-4 1.2143815,1.2143815 0 0 0 1.2144,1.21388 1.2143815,1.2143815 0 0 0 1.21439,-1.21388 1.2143815,1.2143815 0 0 0 0,-5.1e-4 h 0.46768 v 3.16828 c 0,0.93184 -0.75019,1.68207 -1.68207,1.68207 z m 0,-0.46768 a 1.2143815,1.2143815 0 0 0 1.21439,-1.21439 1.2143815,1.2143815 0 0 0 -1.21439,-1.2144 1.2143815,1.2143815 0 0 0 -1.2144,1.2144 1.2143815,1.2143815 0 0 0 1.2144,1.21439 z m -6.34768,0.46768 c -0.93188,0 -1.68207,-0.7502 -1.68207,-1.68207 v -3.16828 h 0.46767 a 1.2143815,1.2143815 0 0 0 0,5.1e-4 1.2143815,1.2143815 0 0 0 1.2144,1.21388 1.2143815,1.2143815 0 0 0 1.21439,-1.21388 1.2143815,1.2143815 0 0 0 0,-5.1e-4 h 0.46768 v 3.16828 c 0,0.93184 -0.75019,1.68207 -1.68207,1.68207 z m 0,-0.46768 a 1.2143815,1.2143815 0 0 0 1.21439,-1.21439 1.2143815,1.2143815 0 0 0 -1.21439,-1.2144 1.2143815,1.2143815 0 0 0 -1.2144,1.2144 1.2143815,1.2143815 0 0 0 1.2144,1.21439 z m 12.69536,24.63365 c -0.93188,0 -1.68207,0.7502 -1.68207,1.68207 v 3.16828 h 0.46767 a 1.2143815,1.2143815 0 0 1 0,-5.1e-4 1.2143815,1.2143815 0 0 1 1.2144,-1.21388 1.2143815,1.2143815 0 0 1 1.21439,1.21388 1.2143815,1.2143815 0 0 1 0,5.1e-4 h 0.46768 v -3.16828 c 0,-0.93184 -0.75019,-1.68207 -1.68207,-1.68207 z m 0,0.46768 a 1.2143815,1.2143815 0 0 1 1.21439,1.21439 1.2143815,1.2143815 0 0 1 -1.21439,1.2144 1.2143815,1.2143815 0 0 1 -1.2144,-1.2144 1.2143815,1.2143815 0 0 1 1.2144,-1.21439 z m -6.34768,-0.46768 c -0.93188,0 -1.68207,0.7502 -1.68207,1.68207 v 3.16828 h 0.46767 a 1.2143815,1.2143815 0 0 1 0,-5.1e-4 1.2143815,1.2143815 0 0 1 1.2144,-1.21388 1.2143815,1.2143815 0 0 1 1.21439,1.21388 1.2143815,1.2143815 0 0 1 0,5.1e-4 h 0.46768 v -3.16828 c 0,-0.93184 -0.75019,-1.68207 -1.68207,-1.68207 z m 0,0.46768 a 1.2143815,1.2143815 0 0 1 1.21439,1.21439 1.2143815,1.2143815 0 0 1 -1.21439,1.2144 1.2143815,1.2143815 0 0 1 -1.2144,-1.2144 1.2143815,1.2143815 0 0 1 1.2144,-1.21439 z m -6.34768,-0.46768 c -0.93188,0 -1.68207,0.7502 -1.68207,1.68207 v 3.16828 h 0.46767 a 1.2143815,1.2143815 0 0 1 0,-5.1e-4 1.2143815,1.2143815 0 0 1 1.2144,-1.21388 1.2143815,1.2143815 0 0 1 1.21439,1.21388 1.2143815,1.2143815 0 0 1 0,5.1e-4 h 0.46768 v -3.16828 c 0,-0.93184 -0.75019,-1.68207 -1.68207,-1.68207 z m 0,0.46768 a 1.2143815,1.2143815 0 0 1 1.21439,1.21439 1.2143815,1.2143815 0 0 1 -1.21439,1.2144 1.2143815,1.2143815 0 0 1 -1.2144,-1.2144 1.2143815,1.2143815 0 0 1 1.2144,-1.21439 z" />
    <path
       id="path20"
       style="fill:#ffffff;stroke-width:0.600001"
       d="m 190.48258,196.50996 c 0.35175,-0.005 0.71818,0.13504 1.01927,0.46257 1.21202,1.30334 1.76202,3.16807 2.38142,4.71479 6e-4,0.001 9.1e-4,0.003 0.002,0.005 0.78812,2.01183 1.39066,4.08699 2.46796,5.63449 0.003,0.005 0.006,0.009 0.009,0.0133 0.14147,0.21497 0.3617,0.38148 0.56413,0.43065 0.20242,0.0492 0.36608,0.009 0.51782,-0.16201 0.005,-0.005 0.008,-0.009 0.0126,-0.0133 0.91648,-0.97052 1.42645,-2.53833 2.04556,-4.07755 0.0797,-0.21102 0.15897,-0.42812 0.24044,-0.64626 0.11515,-0.30539 0.40032,-0.43351 0.63803,-0.2867 0.23788,0.14739 0.3383,0.51481 0.22454,0.82154 -0.0796,0.21314 -0.15948,0.43173 -0.24231,0.65108 -0.002,0.005 -0.004,0.009 -0.005,0.0139 -0.59041,1.4659 -1.12712,3.23253 -2.28599,4.46605 -0.38493,0.43131 -0.88599,0.55008 -1.32238,0.4439 -0.43685,-0.10624 -0.82782,-0.40927 -1.11377,-0.84201 -1.23162,-1.77415 -1.8528,-3.96418 -2.60454,-5.88447 -0.6517,-1.62733 -1.17569,-3.29609 -2.14425,-4.33654 -6.1e-4,-7.7e-4 -9.1e-4,-10e-4 -0.002,-0.002 -0.16194,-0.17612 -0.33275,-0.2099 -0.54121,-0.15057 -0.20846,0.0594 -0.43348,0.24247 -0.5763,0.47159 -0.004,0.007 -0.009,0.0138 -0.014,0.0205 -1.07166,1.57163 -1.67364,3.65969 -2.46795,5.68208 -9e-4,0.001 -0.003,0.003 -0.004,0.005 -0.60224,1.50166 -1.14387,3.3066 -2.31592,4.57807 -0.38211,0.43525 -0.88263,0.56425 -1.32239,0.46437 -0.4394,-0.0998 -0.83648,-0.40042 -1.12451,-0.84202 -1.19149,-1.69244 -1.79595,-3.7902 -2.5138,-5.62968 -0.66086,-1.66926 -1.19247,-3.37652 -2.15548,-4.50761 -0.005,-0.007 -0.0108,-0.0135 -0.0159,-0.0205 -0.28668,-0.36762 -0.79129,-0.29638 -1.06933,0.10243 -0.004,0.007 -0.009,0.0138 -0.0145,0.0205 -0.99437,1.3044 -1.55472,3.14004 -2.25558,4.93343 -0.11913,0.3029 -0.40599,0.42485 -0.64178,0.27284 -0.23721,-0.15234 -0.33323,-0.52376 -0.21424,-0.82876 0.66896,-1.71176 1.25023,-3.68306 2.41884,-5.22434 0.31237,-0.445 0.74835,-0.70813 1.19514,-0.74624 v -6.1e-4 c 0.44734,-0.0381 0.90288,0.14941 1.25316,0.59627 1.1696,1.38317 1.72526,3.25598 2.35335,4.84248 6.1e-4,7.8e-4 9.1e-4,10e-4 0.002,0.002 0.75203,1.92649 1.33794,3.90663 2.3744,5.3725 0.005,0.007 0.009,0.0135 0.014,0.0205 0.13908,0.2147 0.35712,0.37724 0.56039,0.4234 0.20326,0.0462 0.3721,9.4e-4 0.52342,-0.17286 0.004,-0.005 0.007,-0.009 0.0104,-0.0139 0.93637,-1.01078 1.45274,-2.62196 2.08625,-4.20223 0.75725,-1.92807 1.37643,-4.12458 2.59566,-5.92059 0.28096,-0.44894 0.6709,-0.7756 1.11376,-0.90165 0.11104,-0.0316 0.22656,-0.0492 0.34381,-0.0506 z"
       sodipodi:nodetypes="ccscscsccccccsccsccccscccccscccccccccccccccccsccccscc" />
  </g>
</svg>
