<?xml version="1.0" encoding="UTF-8" standalone="no"?>
<svg
   width="1280"
   height="340"
   viewBox="0 0 338.66666 89.95834"
   version="1.1"
   id="svg8"
   inkscape:version="1.4.2 (ebf0e940d0, 2025-05-08)"
   sodipodi:docname="banner.svg"
   inkscape:export-filename="banner.png"
   inkscape:export-xdpi="96"
   inkscape:export-ydpi="96"
   xmlns:inkscape="http://www.inkscape.org/namespaces/inkscape"
   xmlns:sodipodi="http://sodipodi.sourceforge.net/DTD/sodipodi-0.dtd"
   xmlns="http://www.w3.org/2000/svg"
   xmlns:svg="http://www.w3.org/2000/svg"
   xmlns:rdf="http://www.w3.org/1999/02/22-rdf-syntax-ns#"
   xmlns:cc="http://creativecommons.org/ns#"
   xmlns:dc="http://purl.org/dc/elements/1.1/">
  <defs
     id="defs2" />
  <sodipodi:namedview
     id="base"
     pagecolor="#ffffff"
     bordercolor="#666666"
     borderopacity="1.0"
     inkscape:pageopacity="0.0"
     inkscape:pageshadow="2"
     inkscape:zoom="0.9899495"
     inkscape:cx="508.10673"
     inkscape:cy="353.55339"
     inkscape:document-units="mm"
     inkscape:current-layer="layer1"
     inkscape:document-rotation="0"
     showgrid="false"
     inkscape:snap-global="false"
     inkscape:window-width="1526"
     inkscape:window-height="991"
     inkscape:window-x="26"
     inkscape:window-y="23"
     inkscape:window-maximized="0"
     inkscape:snap-bbox="true"
     inkscape:snap-text-baseline="true"
     units="px"
     inkscape:showpageshadow="2"
     inkscape:pagecheckerboard="0"
     inkscape:deskcolor="#d1d1d1"
     showguides="true">
    <inkscape:grid
       id="grid2"
       units="mm"
       originx="4.0336914e-06"
       originy="-8.374024e-06"
       spacingx="0.99999999"
       spacingy="1"
       empcolor="#0099e5"
       empopacity="0.30196078"
       color="#0099e5"
       opacity="0.14901961"
       empspacing="5"
       enabled="true"
       visible="false" />
  </sodipodi:namedview>
  <metadata
     id="metadata5">
    <rdf:RDF>
      <cc:Work
         rdf:about="">
        <dc:format>image/svg+xml</dc:format>
        <dc:type
           rdf:resource="http://purl.org/dc/dcmitype/StillImage" />
      </cc:Work>
    </rdf:RDF>
  </metadata>
  <g
     inkscape:label="Layer 1"
     inkscape:groupmode="layer"
     id="layer1"
     transform="translate(-40.011364,-180.53961)">
    <rect
       style="fill:#ffffff;stroke:none;stroke-width:0.14111;stroke-linecap:square"
       id="rect3"
       width="338.66666"
       height="89.958336"
       x="40.011364"
       y="180.53961"
       rx="2"
       ry="2" />
    <rect
       style="fill:#325fa2;stroke:none;stroke-width:0.141109;stroke-linecap:square"
       id="rect2"
       width="336.02084"
       height="87.3125"
       x="41.334274"
       y="181.86253"
       rx="2"
       ry="1.9999999" />
    <g
       id="g6"
       transform="matrix(1.5624998,0,0,1.5624998,-318.67428,-91.300862)"
       style="stroke-width:0.64">
      <g
         id="g5"
         transform="translate(235.47918)"
         style="stroke-width:0.64">
        <path
           id="rect17"
           style="fill:#009e73;stroke:none;stroke-width:0.0903116;stroke-linecap:square"
           d="m 174.46826,185.83126 c -2.37216,0 -4.28191,1.90975 -4.28191,4.28191 v 25.30285 c 0,2.37216 1.90975,4.28191 4.28191,4.28191 h 4.62194 v -3.16828 c 0,-0.93187 0.75019,-1.68207 1.68207,-1.68207 0.93188,0 1.68207,0.75023 1.68207,1.68207 v 3.16828 h 2.98328 v -3.16828 c 0,-0.93187 0.75018,-1.68207 1.68206,-1.68207 0.93188,0 1.68207,0.75023 1.68207,1.68207 v 3.16828 h 2.9838 v -3.16828 c 0,-0.93187 0.75019,-1.68207 1.68207,-1.68207 0.93188,0 1.68207,0.75023 1.68207,1.68207 v 3.16828 h 4.62142 c 2.37216,0 4.28191,-1.90975 4.28191,-4.28191 v -25.30285 c 0,-2.37216 -1.90975,-4.28191 -4.28191,-4.28191 h -4.62142 v 3.16829 c 0,0.93184 -0.75019,1.68206 -1.68207,1.68206 -0.93188,0 -1.68207,-0.75019 -1.68207,-1.68206 v -3.16829 h -2.9838 v 3.16829 c 0,0.93184 -0.75019,1.68206 -1.68207,1.68206 -0.93188,0 -1.68206,-0.75019 -1.68206,-1.68206 v -3.16829 h -2.98328 v 3.16829 c 0,2.20152 -3.36414,2.20156 -3.36414,0 v -3.16829 z" />
        <path
           id="path17"
           style="fill:#f0e442;fill-opacity:1;stroke:none;stroke-width:0.384"
           d="m 193.46736,190.68161 c -0.93188,0 -1.68207,-0.7502 -1.68207,-1.68207 v -3.16828 h 0.46767 a 1.2143815,1.2143815 0 0 0 0,5.1e-4 1.2143815,1.2143815 0 0 0 1.2144,1.21388 1.2143815,1.2143815 0 0 0 1.21439,-1.21388 1.2143815,1.2143815 0 0 0 0,-5.1e-4 h 0.46768 v 3.16828 c 0,0.93184 -0.75019,1.68207 -1.68207,1.68207 z m 0,-0.46768 a 1.2143815,1.2143815 0 0 0 1.21439,-1.21439 1.2143815,1.2143815 0 0 0 -1.21439,-1.2144 1.2143815,1.2143815 0 0 0 -1.2144,1.2144 1.2143815,1.2143815 0 0 0 1.2144,1.21439 z m -6.34768,0.46768 c -0.93188,0 -1.68207,-0.7502 -1.68207,-1.68207 v -3.16828 h 0.46767 a 1.2143815,1.2143815 0 0 0 0,5.1e-4 1.2143815,1.2143815 0 0 0 1.2144,1.21388 1.2143815,1.2143815 0 0 0 1.21439,-1.21388 1.2143815,1.2143815 0 0 0 0,-5.1e-4 h 0.46768 v 3.16828 c 0,0.93184 -0.75019,1.68207 -1.68207,1.68207 z m 0,-0.46768 a 1.2143815,1.2143815 0 0 0 1.21439,-1.21439 1.2143815,1.2143815 0 0 0 -1.21439,-1.2144 1.2143815,1.2143815 0 0 0 -1.2144,1.2144 1.2143815,1.2143815 0 0 0 1.2144,1.21439 z m -6.34768,0.46768 c -0.93188,0 -1.68207,-0.7502 -1.68207,-1.68207 v -3.16828 h 0.46767 a 1.2143815,1.2143815 0 0 0 0,5.1e-4 1.2143815,1.2143815 0 0 0 1.2144,1.21388 1.2143815,1.2143815 0 0 0 1.21439,-1.21388 1.2143815,1.2143815 0 0 0 0,-5.1e-4 h 0.46768 v 3.16828 c 0,0.93184 -0.75019,1.68207 -1.68207,1.68207 z m 0,-0.46768 a 1.2143815,1.2143815 0 0 0 1.21439,-1.21439 1.2143815,1.2143815 0 0 0 -1.21439,-1.2144 1.2143815,1.2143815 0 0 0 -1.2144,1.2144 1.2143815,1.2143815 0 0 0 1.2144,1.21439 z m 12.69536,24.63365 c -0.93188,0 -1.68207,0.7502 -1.68207,1.68207 v 3.16828 h 0.46767 a 1.2143815,1.2143815 0 0 1 0,-5.1e-4 1.2143815,1.2143815 0 0 1 1.2144,-1.21388 1.2143815,1.2143815 0 0 1 1.21439,1.21388 1.2143815,1.2143815 0 0 1 0,5.1e-4 h 0.46768 v -3.16828 c 0,-0.93184 -0.75019,-1.68207 -1.68207,-1.68207 z m 0,0.46768 a 1.2143815,1.2143815 0 0 1 1.21439,1.21439 1.2143815,1.2143815 0 0 1 -1.21439,1.2144 1.2143815,1.2143815 0 0 1 -1.2144,-1.2144 1.2143815,1.2143815 0 0 1 1.2144,-1.21439 z m -6.34768,-0.46768 c -0.93188,0 -1.68207,0.7502 -1.68207,1.68207 v 3.16828 h 0.46767 a 1.2143815,1.2143815 0 0 1 0,-5.1e-4 1.2143815,1.2143815 0 0 1 1.2144,-1.21388 1.2143815,1.2143815 0 0 1 1.21439,1.21388 1.2143815,1.2143815 0 0 1 0,5.1e-4 h 0.46768 v -3.16828 c 0,-0.93184 -0.75019,-1.68207 -1.68207,-1.68207 z m 0,0.46768 a 1.2143815,1.2143815 0 0 1 1.21439,1.21439 1.2143815,1.2143815 0 0 1 -1.21439,1.2144 1.2143815,1.2143815 0 0 1 -1.2144,-1.2144 1.2143815,1.2143815 0 0 1 1.2144,-1.21439 z m -6.34768,-0.46768 c -0.93188,0 -1.68207,0.7502 -1.68207,1.68207 v 3.16828 h 0.46767 a 1.2143815,1.2143815 0 0 1 0,-5.1e-4 1.2143815,1.2143815 0 0 1 1.2144,-1.21388 1.2143815,1.2143815 0 0 1 1.21439,1.21388 1.2143815,1.2143815 0 0 1 0,5.1e-4 h 0.46768 v -3.16828 c 0,-0.93184 -0.75019,-1.68207 -1.68207,-1.68207 z m 0,0.46768 a 1.2143815,1.2143815 0 0 1 1.21439,1.21439 1.2143815,1.2143815 0 0 1 -1.21439,1.2144 1.2143815,1.2143815 0 0 1 -1.2144,-1.2144 1.2143815,1.2143815 0 0 1 1.2144,-1.21439 z" />
        <path
           id="path20"
           style="fill:#ffffff;stroke-width:0.384001"
           d="m 190.48258,196.50996 c 0.35175,-0.005 0.71818,0.13504 1.01927,0.46257 1.21202,1.30334 1.76202,3.16807 2.38142,4.71479 6e-4,0.001 9.1e-4,0.003 0.002,0.005 0.78812,2.01183 1.39066,4.08699 2.46796,5.63449 0.003,0.005 0.006,0.009 0.009,0.0133 0.14147,0.21497 0.3617,0.38148 0.56413,0.43065 0.20242,0.0492 0.36608,0.009 0.51782,-0.16201 0.005,-0.005 0.008,-0.009 0.0126,-0.0133 0.91648,-0.97052 1.42645,-2.53833 2.04556,-4.07755 0.0797,-0.21102 0.15897,-0.42812 0.24044,-0.64626 0.11515,-0.30539 0.40032,-0.43351 0.63803,-0.2867 0.23788,0.14739 0.3383,0.51481 0.22454,0.82154 -0.0796,0.21314 -0.15948,0.43173 -0.24231,0.65108 -0.002,0.005 -0.004,0.009 -0.005,0.0139 -0.59041,1.4659 -1.12712,3.23253 -2.28599,4.46605 -0.38493,0.43131 -0.88599,0.55008 -1.32238,0.4439 -0.43685,-0.10624 -0.82782,-0.40927 -1.11377,-0.84201 -1.23162,-1.77415 -1.8528,-3.96418 -2.60454,-5.88447 -0.6517,-1.62733 -1.17569,-3.29609 -2.14425,-4.33654 -6.1e-4,-7.7e-4 -9.1e-4,-10e-4 -0.002,-0.002 -0.16194,-0.17612 -0.33275,-0.2099 -0.54121,-0.15057 -0.20846,0.0594 -0.43348,0.24247 -0.5763,0.47159 -0.004,0.007 -0.009,0.0138 -0.014,0.0205 -1.07166,1.57163 -1.67364,3.65969 -2.46795,5.68208 -9e-4,0.001 -0.003,0.003 -0.004,0.005 -0.60224,1.50166 -1.14387,3.3066 -2.31592,4.57807 -0.38211,0.43525 -0.88263,0.56425 -1.32239,0.46437 -0.4394,-0.0998 -0.83648,-0.40042 -1.12451,-0.84202 -1.19149,-1.69244 -1.79595,-3.7902 -2.5138,-5.62968 -0.66086,-1.66926 -1.19247,-3.37652 -2.15548,-4.50761 -0.005,-0.007 -0.0108,-0.0135 -0.0159,-0.0205 -0.28668,-0.36762 -0.79129,-0.29638 -1.06933,0.10243 -0.004,0.007 -0.009,0.0138 -0.0145,0.0205 -0.99437,1.3044 -1.55472,3.14004 -2.25558,4.93343 -0.11913,0.3029 -0.40599,0.42485 -0.64178,0.27284 -0.23721,-0.15234 -0.33323,-0.52376 -0.21424,-0.82876 0.66896,-1.71176 1.25023,-3.68306 2.41884,-5.22434 0.31237,-0.445 0.74835,-0.70813 1.19514,-0.74624 v -6.1e-4 c 0.44734,-0.0381 0.90288,0.14941 1.25316,0.59627 1.1696,1.38317 1.72526,3.25598 2.35335,4.84248 6.1e-4,7.8e-4 9.1e-4,10e-4 0.002,0.002 0.75203,1.92649 1.33794,3.90663 2.3744,5.3725 0.005,0.007 0.009,0.0135 0.014,0.0205 0.13908,0.2147 0.35712,0.37724 0.56039,0.4234 0.20326,0.0462 0.3721,9.4e-4 0.52342,-0.17286 0.004,-0.005 0.007,-0.009 0.0104,-0.0139 0.93637,-1.01078 1.45274,-2.62196 2.08625,-4.20223 0.75725,-1.92807 1.37643,-4.12458 2.59566,-5.92059 0.28096,-0.44894 0.6709,-0.7756 1.11376,-0.90165 0.11104,-0.0316 0.22656,-0.0492 0.34381,-0.0506 z"
           sodipodi:nodetypes="ccscscsccccccsccsccccscccccscccccccccccccccccsccccscc" />
      </g>
    </g>
    <path
       d="m 50.594683,231.99861 h 1.619959 v -6.95397 c 0.889002,-0.98778 1.698982,-1.48167 2.410183,-1.48167 1.224848,0 1.79776,0.77047 1.79776,2.56823 v 5.86741 h 1.619959 v -6.95397 c 0.889002,-0.98778 1.659471,-1.48167 2.410183,-1.48167 1.205092,0 1.778004,0.77047 1.778004,2.56823 v 5.86741 h 1.61996 v -6.08472 c 0,-2.4497 -0.948269,-3.75357 -2.923829,-3.75357 -1.165581,0 -2.153361,0.75072 -3.160896,1.83727 -0.395112,-1.14582 -1.185336,-1.83727 -2.647251,-1.83727 -1.145824,0 -2.15336,0.7112 -2.983095,1.61996 h -0.05927 l -0.138289,-1.38289 h -1.343381 z m 16.377401,0 h 1.61996 v -9.60122 h -1.61996 z m 0.80998,-11.57678 c 0.632179,0 1.086558,-0.41487 1.086558,-1.0668 0,-0.63218 -0.454379,-1.0668 -1.086558,-1.0668 -0.632179,0 -1.086558,0.43462 -1.086558,1.0668 0,0.65193 0.454379,1.0668 1.086558,1.0668 z m 7.862735,11.81385 c 1.224848,0 2.29165,-0.49389 3.081874,-1.26436 l -0.711202,-0.98778 c -0.572912,0.5334 -1.363136,0.90876 -2.232382,0.90876 -1.778004,0 -2.983096,-1.48167 -2.983096,-3.67454 0,-2.21263 1.284114,-3.71406 3.002851,-3.71406 0.829735,0 1.442159,0.31609 1.936049,0.77047 l 0.80998,-0.98778 c -0.651935,-0.65193 -1.540937,-1.12607 -2.805296,-1.12607 -2.46945,0 -4.62281,1.83727 -4.62281,5.05744 0,3.18065 1.955804,5.01792 4.524032,5.01792 z m 5.195711,-0.23707 h 1.619959 v -6.16375 c 0.651935,-1.61995 1.619959,-2.21262 2.429939,-2.21262 0.395112,0 0.592668,0.0395 0.889002,0.11853 l 0.355601,-1.38289 c -0.31609,-0.13829 -0.612424,-0.19756 -1.027292,-0.19756 -1.106313,0 -2.094093,0.77047 -2.726272,1.97556 h -0.05927 l -0.138289,-1.73849 H 80.84051 Z m 10.391443,0.23707 c 2.350916,0 4.44501,-1.83727 4.44501,-5.01792 0,-3.22017 -2.094094,-5.05744 -4.44501,-5.05744 -2.350917,0 -4.44501,1.83727 -4.44501,5.05744 0,3.18065 2.094093,5.01792 4.44501,5.01792 z m 0,-1.34338 c -1.639715,0 -2.765784,-1.48167 -2.765784,-3.67454 0,-2.21263 1.126069,-3.71406 2.765784,-3.71406 1.65947,0 2.765784,1.50143 2.765784,3.71406 0,2.19287 -1.106314,3.67454 -2.765784,3.67454 z m 7.131767,1.10631 h 1.63972 v -5.13645 h 2.1336 c 2.84481,0 4.78086,-1.28412 4.78086,-4.01039 0,-2.84481 -1.95581,-3.81283 -4.85988,-3.81283 h -3.6943 z m 1.63972,-6.47984 v -5.15621 h 1.85702 c 2.2719,0 3.41772,0.61243 3.41772,2.48921 0,1.83727 -1.08656,2.667 -3.3387,2.667 z m 9.54195,10.60876 c 1.93605,0 2.92383,-1.44216 3.59552,-3.33869 l 3.61528,-10.39145 h -1.58045 l -1.71874,5.31426 c -0.25682,0.84949 -0.5334,1.83727 -0.80998,2.70651 h -0.079 c -0.29634,-0.889 -0.63218,-1.87678 -0.92852,-2.70651 l -1.9558,-5.31426 h -1.67923 l 3.85235,9.62098 -0.21732,0.7112 c -0.39511,1.18533 -1.08655,2.05458 -2.17311,2.05458 -0.21731,0 -0.45438,-0.0395 -0.69145,-0.11853 l -0.3556,1.26436 c 0.31609,0.11853 0.69145,0.19755 1.12607,0.19755 z m 14.32283,-3.89185 c 1.73849,0 3.1609,-0.63218 3.99063,-1.50143 v -5.45254 h -4.24745 v 1.36313 h 2.74603 v 3.37821 c -0.51365,0.47414 -1.40265,0.77047 -2.33117,0.77047 -2.76578,0 -4.30672,-2.05458 -4.30672,-5.31426 0,-3.22016 1.67923,-5.23523 4.28697,-5.23523 1.30387,0 2.1336,0.49389 2.78554,1.18534 l 0.90876,-1.0273 c -0.75072,-0.80998 -1.93605,-1.6002 -3.73381,-1.6002 -3.43748,0 -5.94644,2.54847 -5.94644,6.7169 0,4.2277 2.42994,6.71691 5.84766,6.71691 z m 6.93423,-0.23707 h 1.61996 v -6.16375 c 0.65193,-1.61995 1.61996,-2.21262 2.42993,-2.21262 0.39512,0 0.59267,0.0395 0.88901,0.11853 l 0.3556,-1.38289 c -0.31609,-0.13829 -0.61243,-0.19756 -1.02729,-0.19756 -1.10632,0 -2.0941,0.77047 -2.72628,1.97556 h -0.0593 l -0.13829,-1.73849 h -1.34338 z m 8.59368,0.23707 c 1.20509,0 2.23238,-0.61242 3.18065,-1.38289 h 0.0593 l 0.13829,1.14582 h 1.34338 v -5.88717 c 0,-2.39042 -1.00754,-3.95112 -3.3387,-3.95112 -1.54093,0 -2.88431,0.65194 -3.77332,1.24461 l 0.63218,1.10631 c 0.75072,-0.47414 1.75825,-0.98778 2.86457,-0.98778 1.56069,0 1.97556,1.16558 1.99531,2.37067 -4.10916,0.45438 -5.92668,1.46192 -5.92668,3.61528 0,1.73849 1.22485,2.72627 2.82505,2.72627 z m 0.45438,-1.34338 c -0.92851,0 -1.67923,-0.41487 -1.67923,-1.48167 0,-1.2446 1.08656,-1.97556 4.32648,-2.35092 v 2.58799 c -0.92851,0.82973 -1.71874,1.2446 -2.64725,1.2446 z m 7.28981,5.15621 h 1.61996 v -3.23992 l -0.0395,-1.67922 c 0.889,0.69144 1.778,1.10631 2.66701,1.10631 2.19287,0 4.14867,-1.91629 4.14867,-5.17597 0,-2.98309 -1.32362,-4.89939 -3.79307,-4.89939 -1.12607,0 -2.19287,0.61243 -3.06212,1.34338 h -0.0593 l -0.13829,-1.10631 h -1.34338 z m 3.97088,-5.17597 c -0.63218,0 -1.48167,-0.27658 -2.35092,-1.00753 v -5.03768 c 0.94827,-0.84949 1.75825,-1.30387 2.56823,-1.30387 1.81751,0 2.52872,1.4224 2.52872,3.53625 0,2.37067 -1.16558,3.81283 -2.74603,3.81283 z m 6.99349,1.12607 h 1.61995 v -6.95397 c 0.96803,-0.96802 1.63972,-1.48167 2.6275,-1.48167 1.26436,0 1.81751,0.77047 1.81751,2.56823 v 5.86741 h 1.61996 v -6.08472 c 0,-2.4497 -0.90875,-3.75357 -2.92383,-3.75357 -1.32362,0 -2.29164,0.7112 -3.2004,1.58045 l 0.0593,-1.97556 v -3.83259 h -1.61995 z"
       id="text1"
       style="font-size:19.7556px;line-height:1.05;font-family:'Source Sans 3';-inkscape-font-specification:'Source Sans 3, ';letter-spacing:0px;word-spacing:0px;fill:#ffffff;stroke-width:0.264583;stroke-linecap:square;stroke-linejoin:round"
       aria-label="microPyGraph" />
  </g>
</svg>
