<?xml version="1.0" encoding="UTF-8" standalone="no"?>
<!-- Created with Inkscape (http://www.inkscape.org/) -->

<svg
   width="338.66666mm"
   height="89.958336mm"
   viewBox="0 0 338.66666 89.958336"
   version="1.1"
   id="svg1"
   inkscape:version="1.4.2 (ebf0e940d0, 2025-05-08)"
   sodipodi:docname="banner.svg"
   xml:space="preserve"
   xmlns:inkscape="http://www.inkscape.org/namespaces/inkscape"
   xmlns:sodipodi="http://sodipodi.sourceforge.net/DTD/sodipodi-0.dtd"
   xmlns="http://www.w3.org/2000/svg"
   xmlns:svg="http://www.w3.org/2000/svg"><sodipodi:namedview
     id="namedview1"
     pagecolor="#ffffff"
     bordercolor="#000000"
     borderopacity="0.25"
     inkscape:showpageshadow="2"
     inkscape:pageopacity="0.0"
     inkscape:pagecheckerboard="0"
     inkscape:deskcolor="#d1d1d1"
     inkscape:document-units="mm"
     inkscape:zoom="0.3563412"
     inkscape:cx="182.40944"
     inkscape:cy="491.10235"
     inkscape:window-width="1920"
     inkscape:window-height="1011"
     inkscape:window-x="0"
     inkscape:window-y="0"
     inkscape:window-maximized="1"
     inkscape:current-layer="layer1"
     showguides="true" /><defs
     id="defs1" /><g
     inkscape:label="Layer 1"
     inkscape:groupmode="layer"
     id="layer1"
     transform="translate(95.674515,89.904221)"><rect
       style="fill:#ffffff;stroke:none;stroke-width:0.14111;stroke-linecap:square"
       id="rect3"
       width="338.66666"
       height="89.958336"
       x="-95.674515"
       y="-89.904221"
       rx="2"
       ry="2" /><rect
       style="fill:#5087c1;stroke:none;stroke-width:0.141109;stroke-linecap:square"
       id="rect2"
       width="336.02084"
       height="87.3125"
       x="-94.351593"
       y="-88.581299"
       rx="2"
       ry="1.9999999" /><path
       d="m -83.58411,-44.181019 h 7.309572 v -1.402647 h -5.669857 v -11.557026 h -1.639715 z m 9.443178,0 h 1.619959 v -9.601221 h -1.619959 z m 0.80998,-11.576781 c 0.632179,0 1.086558,-0.414868 1.086558,-1.066803 0,-0.632179 -0.454379,-1.066802 -1.086558,-1.066802 -0.632179,0 -1.086558,0.434623 -1.086558,1.066802 0,0.651935 0.454379,1.066803 1.086558,1.066803 z m 7.862734,11.813848 c 1.224848,0 2.29165,-0.49389 3.081874,-1.264358 l -0.711202,-0.98778 c -0.572912,0.533401 -1.363136,0.908758 -2.232382,0.908758 -1.778004,0 -2.983096,-1.48167 -2.983096,-3.674542 0,-2.212627 1.284114,-3.714053 3.002851,-3.714053 0.829735,0 1.442159,0.31609 1.936049,0.770469 l 0.80998,-0.98778 c -0.651935,-0.651935 -1.540937,-1.12607 -2.805296,-1.12607 -2.46945,0 -4.62281,1.837271 -4.62281,5.057434 0,3.180652 1.955804,5.017922 4.524032,5.017922 z m 5.19571,-0.237067 h 1.619959 v -2.528717 l 1.778004,-2.094093 2.805295,4.62281 h 1.778004 l -3.63503,-5.729124 3.200407,-3.872097 h -1.817515 l -4.069654,5.037678 h -0.03951 v -9.502444 h -1.619959 z m 16.239136,0.237067 c 2.271894,0 3.516497,-1.303869 3.516497,-2.864562 0,-1.738492 -1.461915,-2.390427 -2.96334,-2.923828 -1.185336,-0.414868 -2.034827,-0.770469 -2.034827,-1.639715 0,-0.730957 0.553157,-1.382892 1.758248,-1.382892 0.869247,0 1.560693,0.276578 2.232383,0.750713 l 0.750713,-0.928514 c -0.750713,-0.632179 -1.79776,-1.086558 -2.983096,-1.086558 -2.094093,0 -3.31894,1.185336 -3.31894,2.726273 0,1.580448 1.382892,2.271894 2.82505,2.78554 1.086558,0.395112 2.173116,0.809979 2.173116,1.797759 0,0.829736 -0.632179,1.501426 -1.896537,1.501426 -1.185336,0 -2.054583,-0.375356 -2.884318,-1.066802 l -0.750713,0.948268 c 0.889002,0.869247 2.173116,1.382892 3.575764,1.382892 z m 9.403676,-8.75173 c 1.48167,0 2.331161,1.007535 2.331161,2.864562 h -4.998167 c 0.256823,-2.054583 1.48167,-2.864562 2.667006,-2.864562 z m 0.256823,8.75173 c 1.303869,0 2.331161,-0.414867 3.180651,-0.98778 l -0.592668,-1.066802 c -0.67169,0.454379 -1.48167,0.730957 -2.390427,0.730957 -1.619959,0 -3.002851,-1.126069 -3.160896,-3.279429 h 6.42057 c 0.05927,-0.31609 0.07902,-0.63218 0.07902,-0.968025 0,-2.726273 -1.343381,-4.504277 -3.812831,-4.504277 -2.212627,0 -4.346232,1.916294 -4.346232,5.037678 0,3.180652 2.034827,5.037678 4.622811,5.037678 z m 5.906933,-0.237067 h 1.619959 v -6.953971 c 0.968024,-0.968024 1.639715,-1.48167 2.627495,-1.48167 1.264358,0 1.817515,0.770468 1.817515,2.568228 v 5.867413 h 1.619959 v -6.084725 c 0,-2.449694 -0.908757,-3.753564 -2.923829,-3.753564 -1.323625,0 -2.311405,0.711202 -3.220162,1.61996 h -0.05927 l -0.138289,-1.382892 h -1.343381 z m 13.315289,0.237067 c 2.271894,0 3.516497,-1.303869 3.516497,-2.864562 0,-1.738492 -1.461915,-2.390427 -2.96334,-2.923828 -1.185336,-0.414868 -2.034827,-0.770469 -2.034827,-1.639715 0,-0.730957 0.553157,-1.382892 1.758248,-1.382892 0.869247,0 1.560693,0.276578 2.232383,0.750713 l 0.750713,-0.928514 c -0.750713,-0.632179 -1.79776,-1.086558 -2.983096,-1.086558 -2.094093,0 -3.318941,1.185336 -3.318941,2.726273 0,1.580448 1.382892,2.271894 2.825051,2.78554 1.086558,0.395112 2.173116,0.809979 2.173116,1.797759 0,0.829736 -0.632179,1.501426 -1.896537,1.501426 -1.185336,0 -2.054583,-0.375356 -2.884318,-1.066802 l -0.750713,0.948268 c 0.889002,0.869247 2.173116,1.382892 3.575764,1.382892 z m 9.5024578,0 c 2.3509164,0 4.44501,-1.83727 4.44501,-5.017922 0,-3.220163 -2.0940936,-5.057434 -4.44501,-5.057434 -2.3509164,0 -4.4450098,1.837271 -4.4450098,5.057434 0,3.180652 2.0940934,5.017922 4.4450098,5.017922 z m 0,-1.34338 c -1.6397148,0 -2.765784,-1.48167 -2.765784,-3.674542 0,-2.212627 1.1260692,-3.714053 2.765784,-3.714053 1.6594704,0 2.765784,1.501426 2.765784,3.714053 0,2.192872 -1.1063136,3.674542 -2.765784,3.674542 z m 6.9737264,1.106313 h 1.6199592 v -6.163747 c 0.6519348,-1.619959 1.6199592,-2.212627 2.4299388,-2.212627 0.395112,0 0.592668,0.03951 0.889002,0.118533 l 0.3556008,-1.382892 c -0.3160896,-0.138289 -0.6124236,-0.197556 -1.0272912,-0.197556 -1.1063136,0 -2.0940936,0.770469 -2.7262728,1.97556 H 2.8072032 L 2.668914,-53.78224 H 1.3255332 Z"
       id="text1"
       style="font-size:19.7556px;line-height:1.05;font-family:'Source Sans 3';-inkscape-font-specification:'Source Sans 3, ';letter-spacing:0px;word-spacing:0px;fill:#ffffff;stroke-width:0.264583;stroke-linecap:square;stroke-linejoin:round"
       aria-label="Lick sensor" /><path
       d="m -84.27838,-31.738558 h 0.92569 v -4.730049 h 1.162757 v -0.756356 h -1.162757 v -0.869246 c 0,-0.699912 0.248356,-1.061156 0.767646,-1.061156 0.2032,0 0.395111,0.03387 0.620889,0.1016 l 0.2032,-0.677334 c -0.237067,-0.1016 -0.575734,-0.180623 -0.914401,-0.180623 -1.095023,0 -1.603024,0.699912 -1.603024,1.817513 v 0.869246 l -0.8128,0.05644 v 0.699912 h 0.8128 z m 5.159023,0.135467 c 1.343379,0 2.540003,-1.049868 2.540003,-2.867381 0,-1.84009 -1.196624,-2.889958 -2.540003,-2.889958 -1.343379,0 -2.540002,1.049868 -2.540002,2.889958 0,1.817513 1.196623,2.867381 2.540002,2.867381 z m 0,-0.767645 c -0.936978,0 -1.580446,-0.846668 -1.580446,-2.099736 0,-1.264357 0.643468,-2.122313 1.580446,-2.122313 0.948268,0 1.580446,0.857956 1.580446,2.122313 0,1.253068 -0.632178,2.099736 -1.580446,2.099736 z m 3.98498,0.632178 h 0.925689 v -3.522137 c 0.372534,-0.92569 0.92569,-1.264357 1.388535,-1.264357 0.225778,0 0.338667,0.02258 0.508001,0.06773 l 0.2032,-0.790223 c -0.180622,-0.07902 -0.349956,-0.112889 -0.587023,-0.112889 -0.632178,0 -1.196623,0.440267 -1.557868,1.12889 h -0.03387 l -0.07902,-0.993423 h -0.767645 z m 6.175038,0 h 0.92569 v -3.522137 c 0.372534,-0.92569 0.92569,-1.264357 1.388535,-1.264357 0.225778,0 0.338667,0.02258 0.508,0.06773 l 0.2032,-0.790223 c -0.180622,-0.07902 -0.349956,-0.112889 -0.587023,-0.112889 -0.632178,0 -1.196623,0.440267 -1.557868,1.12889 h -0.03387 l -0.07902,-0.993423 h -0.767645 z m 5.937962,0.135467 c 1.343379,0 2.540002,-1.049868 2.540002,-2.867381 0,-1.84009 -1.196623,-2.889958 -2.540002,-2.889958 -1.34338,0 -2.540003,1.049868 -2.540003,2.889958 0,1.817513 1.196623,2.867381 2.540003,2.867381 z m 0,-0.767645 c -0.936979,0 -1.580446,-0.846668 -1.580446,-2.099736 0,-1.264357 0.643467,-2.122313 1.580446,-2.122313 0.948267,0 1.580446,0.857956 1.580446,2.122313 0,1.253068 -0.632179,2.099736 -1.580446,2.099736 z m 5.858937,0.767645 c 0.643467,0 1.23049,-0.361245 1.659468,-0.778934 h 0.03387 l 0.07902,0.643467 h 0.767645 v -8.037697 h -0.936978 v 2.111024 l 0.04516,0.936979 c -0.485423,-0.395111 -0.903112,-0.632178 -1.53529,-0.632178 -1.253068,0 -2.381958,1.106312 -2.381958,2.889958 0,1.828802 0.891823,2.867381 2.269069,2.867381 z m 0.2032,-0.778934 c -0.959557,0 -1.512713,-0.790223 -1.512713,-2.099736 0,-1.253068 0.699912,-2.099735 1.580446,-2.099735 0.451556,0 0.869246,0.158045 1.332091,0.575734 v 2.867381 c -0.451556,0.508 -0.891824,0.756356 -1.399824,0.756356 z m 6.265343,-4.222049 c 0.846667,0 1.33209,0.575734 1.33209,1.636891 h -2.856092 c 0.146756,-1.174046 0.846668,-1.636891 1.524002,-1.636891 z m 0.146755,5.000983 c 0.745068,0 1.332091,-0.237067 1.817513,-0.564445 l -0.338667,-0.609601 c -0.383822,0.259645 -0.846667,0.41769 -1.365957,0.41769 -0.92569,0 -1.715913,-0.643468 -1.806224,-1.873958 h 3.668893 c 0.03387,-0.180622 0.04516,-0.361245 0.04516,-0.553156 0,-1.557868 -0.767645,-2.573869 -2.178757,-2.573869 -1.264357,0 -2.483558,1.095023 -2.483558,2.878669 0,1.817513 1.162756,2.87867 2.641602,2.87867 z m 3.375385,-0.135467 h 0.92569 v -3.973693 c 0.553156,-0.553156 0.936979,-0.846667 1.501424,-0.846667 0.72249,0 1.038579,0.440267 1.038579,1.467557 v 3.352803 h 0.92569 v -3.476981 c 0,-1.399824 -0.51929,-2.144891 -1.670758,-2.144891 -0.756356,0 -1.320801,0.4064 -1.84009,0.92569 h -0.03387 l -0.07902,-0.790223 h -0.767646 z m 7.90224,0.1016 c 0.372533,0 0.733778,-0.09031 1.027289,-0.237067 l -0.191911,-0.654756 c -0.214489,0.1016 -0.428978,0.135467 -0.620889,0.135467 -0.632179,0 -0.846668,-0.383823 -0.846668,-1.049868 v -3.025425 h 1.478846 v -0.756356 h -1.478846 v -1.761069 h -0.778934 l -0.112889,1.761069 -0.857956,0.05644 v 0.699912 h 0.8128 v 3.002847 c 0,1.095024 0.395112,1.828802 1.569158,1.828802 z m 3.409239,0.03387 c 1.298224,0 2.009425,-0.745067 2.009425,-1.636891 0,-0.993423 -0.835379,-1.365957 -1.693336,-1.670757 -0.677334,-0.237067 -1.162756,-0.440267 -1.162756,-0.936979 0,-0.417689 0.316089,-0.790223 1.004712,-0.790223 0.496712,0 0.891823,0.158045 1.275646,0.428979 l 0.428978,-0.530579 c -0.428978,-0.361244 -1.02729,-0.620889 -1.704624,-0.620889 -1.196624,0 -1.896535,0.677334 -1.896535,1.557868 0,0.903112 0.790223,1.298224 1.614312,1.591735 0.62089,0.225778 1.241779,0.462845 1.241779,1.02729 0,0.474134 -0.361244,0.857956 -1.083734,0.857956 -0.677334,0 -1.174046,-0.214489 -1.648179,-0.6096 l -0.428979,0.541867 c 0.508001,0.496712 1.241779,0.790223 2.043291,0.790223 z"
       id="text68"
       style="font-size:11.2889px;line-height:1.05;font-family:'Source Sans 3';-inkscape-font-specification:'Source Sans 3, ';letter-spacing:0px;word-spacing:0px;fill:#ffffff;stroke-width:0.264583;stroke-linecap:square;stroke-linejoin:round"
       aria-label="for rodents" /><g
       id="g2"
       transform="matrix(1.7346555,0,0,1.7354641,-103.35997,-122.99329)"
       style="stroke-width:0.576349"><path
         id="path4345"
         style="display:inline;fill:#4d4d4d;fill-opacity:1;stroke:#000000;stroke-width:0.0813292;stroke-linecap:round;stroke-linejoin:miter;stroke-miterlimit:4;stroke-dasharray:none;stroke-dashoffset:0;stroke-opacity:1;stop-color:#000000"
         d="m 162.83317,30.154483 0.0241,-2.03591 c 0,-0.36638 1.55022,-0.50697 2.25637,-0.37392 1.23852,0.23334 2.00273,-0.4128 3.25332,-0.30166"
         sodipodi:nodetypes="ccsc" /><path
         id="path4320"
         style="display:inline;vector-effect:none;fill:#666666;fill-opacity:1;stroke:#000000;stroke-width:0.0813292;stroke-linecap:round;stroke-linejoin:miter;stroke-miterlimit:4;stroke-dasharray:none;stroke-dashoffset:0;stroke-opacity:1;-inkscape-stroke:none;stop-color:#000000"
         d="m 162.83317,30.154483 0.0241,-2.0359 c -0.0298,0.11108 2.04986,0.45195 3.11373,0.1492 2.62096,-0.74992 3.92164,-1.79768 6.83597,-1.43357 0.90303,0.1153 1.59832,0.56008 2.18569,1.25765 l 0.0244,2.06261"
         sodipodi:nodetypes="cccccc" /><ellipse
         style="display:inline;fill:#666666;fill-opacity:1;fill-rule:evenodd;stroke:#000000;stroke-width:0.0813292;stroke-linecap:round;stroke-linejoin:miter;stroke-miterlimit:4;stroke-dasharray:none;stroke-dashoffset:0;stroke-opacity:1;stop-color:#000000"
         id="ellipse4329"
         cx="-168.92516"
         cy="-30.15447"
         rx="6.09197"
         ry="1.445181"
         transform="scale(-1)" /><path
         style="display:inline;fill:#666666;fill-rule:evenodd;stroke:#000000;stroke-width:0.0813298;stroke-linecap:round;stop-color:#000000"
         d="m 162.55116,34.129343 3.67362,-3.67989 c 0.33779,-0.35152 1.63357,-0.56012 2.89421,-0.46593 1.26064,0.0942 2.00876,0.4555 1.67097,0.80702 l -5.78566,5.7952"
         id="path1034" /><path
         style="display:inline;fill:#666666;fill-rule:evenodd;stroke:#000000;stroke-width:0.0813298;stroke-linecap:round;stop-color:#000000"
         d="m 162.55116,34.129343 a 1.7360364,0.57074955 45.378982 0 1 1.61067,0.80499 1.7360364,0.57074955 45.378982 0 1 0.84247,1.6514 1.7360364,0.57074955 45.378982 0 1 -1.61068,-0.80499 1.7360364,0.57074955 45.378982 0 1 -0.84246,-1.6514 z"
         id="path1036" /><path
         id="path8662"
         style="display:inline;vector-effect:none;fill:#cccccc;fill-rule:evenodd;stroke:none;stroke-width:0.0716154;stroke-linecap:round;stop-color:#000000"
         d="m 156.8998,42.246203 c -0.50662,-0.50636 -0.7803,-1.05379 -0.61087,-1.22305 l 6.5745,-6.57983 c 0.0848,-0.0847 0.33795,0.0117 0.66415,0.25302 0.32621,0.24131 0.67588,0.5908 0.9173,0.91684 0.24144,0.32604 0.33793,0.57908 0.25315,0.66382 l -6.57553,6.58078 c -0.16834,0.16834 -0.71605,-0.1052 -1.22267,-0.61156 z"
         sodipodi:nodetypes="sccssccs" /><path
         style="display:inline;fill:#ffffff;fill-rule:evenodd;stroke:#000000;stroke-width:0.0813292;stroke-linecap:round;stop-color:#000000"
         d="m 156.28913,41.022993 6.57408,-6.5795"
         id="path1052"
         sodipodi:nodetypes="cc" /><path
         style="display:inline;fill:#ffffff;fill-rule:evenodd;stroke:#000000;stroke-width:0.0813292;stroke-linecap:round;stop-color:#000000"
         d="m 164.69782,36.277153 -6.57623,6.58137"
         id="path1050"
         sodipodi:nodetypes="cc" /><path
         style="display:inline;vector-effect:none;fill:none;fill-opacity:1;fill-rule:evenodd;stroke:#000000;stroke-width:0.124264;stroke-linecap:round;stroke-linejoin:miter;stroke-miterlimit:4;stroke-dasharray:none;stroke-dashoffset:0;stroke-opacity:1;-inkscape-stroke:none;stop-color:#000000"
         id="path2610"
         sodipodi:type="arc"
         sodipodi:cx="-90.770683"
         sodipodi:cy="140.79054"
         sodipodi:rx="0.33549625"
         sodipodi:ry="1.2969398"
         sodipodi:start="1.5707963"
         sodipodi:end="4.712389"
         sodipodi:open="true"
         sodipodi:arc-type="arc"
         d="m -90.770683,142.08748 a 0.33549625,1.2969398 0 0 1 -0.290549,-0.64847 0.33549625,1.2969398 0 0 1 0,-1.29694 0.33549625,1.2969398 0 0 1 0.290549,-0.64847"
         transform="matrix(-0.70728809,0.70692542,0.70728809,0.70692542,0,0)" /><path
         style="display:inline;fill:#cccccc;fill-rule:evenodd;stroke:#000000;stroke-width:0.0813292;stroke-linecap:round;stop-color:#000000"
         d="m 156.28913,41.022993 a 1.2968422,0.43232401 45.059178 0 1 1.2217,0.61181 1.2968422,0.43232401 45.059178 0 1 0.6108,1.22371 1.2968422,0.43232401 45.059178 0 1 -1.2217,-0.61181 1.2968422,0.43232401 45.059178 0 1 -0.6108,-1.22371 z"
         id="path1038" /><ellipse
         style="display:inline;fill:#cccccc;fill-opacity:1;fill-rule:evenodd;stroke:#000000;stroke-width:0.0813292;stroke-linecap:round;stroke-linejoin:miter;stroke-miterlimit:4;stroke-dasharray:none;stroke-dashoffset:0;stroke-opacity:1;stop-color:#000000"
         id="ellipse1040"
         cx="-140.88509"
         cy="81.369827"
         rx="0.50946534"
         ry="0.16463156"
         transform="matrix(-0.70652232,-0.70769076,0.70652232,-0.70769076,0,0)" /><path
         id="path3825"
         style="font-variation-settings:normal;display:inline;fill:#999999;fill-opacity:1;stroke:none;stroke-width:0.0813292;stroke-linecap:round;stroke-linejoin:miter;stroke-miterlimit:4;stroke-dasharray:none;stroke-dashoffset:0;stroke-opacity:1;stop-color:#000000"
         d="m 154.93203,40.450713 c 0.52198,-0.006 0.97843,0.13651 0.9927,0.76481 0.005,0.2362 -0.047,0.3468 -0.20412,0.62581 0.11936,0.2629 0.1313,0.94232 -0.0589,1.18442 -0.45686,0.5021 -0.86831,1.18659 -1.21646,1.73426 -0.42544,0.66925 -1.47217,1.16445 -1.47175,1.16996 0.037,0.49134 -0.0247,0.55114 -0.12247,0.72036 -0.18701,0.32343 -0.3518,0.3013 -0.64182,0.73484 -0.35172,0.52578 -0.46274,1.98972 -0.67335,2.6076 -0.12772,0.37471 -0.18029,0.80484 -0.2098,1.24075 0.44352,0.25176 0.83426,0.20344 1.26762,0.0641 0.61598,-0.19809 0.39298,-0.52669 1.09399,-0.50591 0.34635,0.0103 0.41667,0.13341 0.57309,0.3886 0.0307,0.0501 0.46642,0.24358 0.47542,0.61754 0.0117,0.47724 -0.31306,0.5699 -0.32556,0.66869 -0.0481,0.38158 -0.46779,0.56606 -0.66714,0.44752 -0.32452,-0.19296 -0.15767,-0.73414 -0.28164,-0.5209 -0.13125,0.22578 -0.0765,0.26944 -0.17466,0.23306 -0.44391,-0.16437 -0.18585,0.23064 -0.30386,0.28835 -0.19495,0.0953 -0.44113,0.0295 -0.65422,-0.0186 -0.48748,-0.11003 -0.86657,-0.0204 -1.15756,0.17725 -8e-5,6e-5 9e-5,4.6e-4 0,5.2e-4 -0.016,0.0692 -0.0342,0.13561 -0.0553,0.19844 -0.81114,1.88956 -2.10828,2.42313 -2.9931,3.03289 l -0.75706,0.76119 c -0.0232,0.0423 -0.0446,0.0863 -0.0641,0.13178 -0.34585,0.80781 -0.0112,0.80266 -1.94406,3.075265 -0.35331,0.46946 -0.46414,0.78995 -0.87127,1.08366 -0.10979,0.0792 -0.22459,0.14934 -0.34365,0.21187 0.0744,0.0911 0.17955,0.11145 0.29973,0.10955 1.57121,-0.0244 3.43215,-0.27963 3.91811,-0.34881 0.30711,-0.0437 1.25057,-0.048 1.52187,0.13642 0.16953,0.11526 0.0843,0.43191 -0.20309,0.53847 0.27763,0.0593 0.55178,0.1177 0.94258,0.40411 0.45633,0.33443 0.0987,0.57184 -0.0243,0.63665 -0.42159,0.22208 -1.79701,-0.24107 -1.78801,-0.10903 0.0359,0.5158 -0.43786,0.2363 -1.24902,0.13332 -0.4352,-0.0553 -1.39141,-0.13188 -1.82366,-0.1018 -1.1209,0.078 -2.00272,0.062 -2.44481,-0.41858 -0.18934,-0.20583 -0.62246,-0.34959 -0.81494,-0.54519 -0.004,-0.004 -0.007,-0.007 -0.0109,-0.0109 l -5.2e-4,5.2e-4 c -1.4806,0.0976 -3.05416,-0.31412 -3.79098,-0.28474 -3.35452,2.05163 -8.98455,1.41122 -13.40383,1.26763 -3.4526,-0.11219 -4.82121,-0.38825 -7.98867,-0.24185 -2.04525,0.0945 -6.67443,-0.30509 -4.65088,-0.51573 1.18766,-0.12362 2.23694,-0.11599 2.88561,-0.15813 0.72402,-0.047 1.56732,-0.26226 3.0515,-0.30644 1.48417,-0.0442 4.29517,0.12456 6.03943,0.13126 4.98183,0.0193 11.00081,0.33204 12.37547,-0.88935 0.19694,-0.13884 0.54128,-0.60393 0.59428,-0.74621 0.30741,-0.82491 -0.42029,-2.223465 -0.58343,-3.607025 -0.20191,-1.71262 0.0297,-2.14626 -0.12299,-3.92172 -0.10566,-1.22811 0.99098,-3.66518 1.54203,-4.65966 1.09042,-1.96788 3.73943,-3.45402 5.29477,-3.91398 0.20236,-0.0598 0.36573,-0.124 0.50022,-0.19068 -0.90136,-0.52212 -1.65384,-1.16524 -1.84019,-1.86346 -0.25293,-0.94765 0.88626,-1.83871 2.18384,-1.59628 0.16874,0.0315 0.31941,0.0723 0.45475,0.12092 0.84219,0.20619 1.50519,0.74526 2.11615,1.46089 0.54553,-0.20393 1.09967,-0.39435 1.6304,-0.64078 1.89529,-0.88007 4.12389,-1.09888 5.46116,-0.91984 0.22892,-0.0319 0.48,-0.0651 0.71727,-0.0677 z" /><path
         id="path3452"
         style="font-variation-settings:normal;display:inline;fill:none;fill-opacity:1;stroke:#000000;stroke-width:0.0813292;stroke-linecap:round;stroke-linejoin:miter;stroke-miterlimit:4;stroke-dasharray:none;stroke-dashoffset:0;stroke-opacity:1;stop-color:#000000"
         d="m 140.76741,58.755043 c 0.18261,1.070555 1.10759,1.518925 1.61248,1.661875 -0.64278,1.42001 -0.23251,1.25168 0.0977,1.58723 0.19248,0.1956 0.62535,0.33951 0.81469,0.54534 0.44209,0.48059 1.32414,0.49615 2.44504,0.41815 0.43225,-0.0301 1.38842,0.0468 1.82362,0.10206 0.81116,0.10298 1.28493,0.38242 1.24906,-0.13339 -0.009,-0.13203 1.36653,0.33102 1.78812,0.10894 0.12304,-0.0648 0.48023,-0.30195 0.0239,-0.63638 -0.3908,-0.28641 -0.66467,-0.34484 -0.9423,-0.40414 0.28743,-0.10656 0.37277,-0.4232 0.20324,-0.53846 -0.2713,-0.18445 -1.21484,-0.18049 -1.52196,-0.13677 -0.48596,0.0692 -2.34715,0.32466 -3.91837,0.34908 -0.37911,0.006 -0.60802,-0.20682 -0.2009,-2.17528 m 6.32409,-5.654265 c 0.27538,-0.62747 0.81453,-1.16694 1.76306,-0.95283 0.21309,0.0481 0.45974,0.1139 0.65469,0.0186 0.11801,-0.0577 -0.14052,-0.45291 0.30339,-0.28854 0.0982,0.0364 0.0439,-0.007 0.17515,-0.23288 0.12397,-0.21324 -0.0429,0.32812 0.28162,0.52108 0.19935,0.11854 0.61908,-0.0662 0.66717,-0.44775 0.0125,-0.0988 0.33713,-0.19135 0.32542,-0.66859 -0.009,-0.37396 -0.44459,-0.56729 -0.47533,-0.61744 -0.15642,-0.25519 -0.22711,-0.37867 -0.57346,-0.38893 -0.70101,-0.0208 -0.47767,0.30815 -1.09365,0.50624 -0.43336,0.13937 -0.82451,0.18769 -1.26803,-0.0641 0.0295,-0.43591 0.0822,-0.86633 0.20991,-1.24104 0.21061,-0.61788 0.32163,-2.08186 0.67335,-2.60764 0.29002,-0.43354 0.45469,-0.41103 0.6417,-0.73446 0.0978,-0.16922 0.15991,-0.22942 0.12291,-0.72077 -4.2e-4,-0.005 1.04619,-0.50028 1.47163,-1.16953 0.34816,-0.54768 0.75936,-1.23251 1.21622,-1.73462 0.19021,-0.24209 0.17856,-0.92121 0.0592,-1.18411 0.15708,-0.27901 0.20888,-0.3898 0.20388,-0.626 -0.0207,-0.9139 -0.97724,-0.79952 -1.70977,-0.69737 -1.33728,-0.17903 -3.5661,0.0399 -5.4614,0.91999 -0.53073,0.24643 -1.08479,0.437 -1.63023,0.64099 m -2.91389,1.87714 c -0.1352,0.0672 -0.29875,0.13133 -0.50111,0.19118 -1.55534,0.45996 -4.20393,1.94649 -5.29435,3.91437 -0.55105,0.99449 -1.64785,3.43132 -1.54219,4.65943 0.15271,1.77547 -0.0788,2.20887 0.12311,3.9215 0.16314,1.38356 0.89064,2.782205 0.58323,3.607115 -0.053,0.14228 -0.39739,0.60749 -0.59433,0.74633 -1.37466,1.2214 -7.39336,0.90864 -12.3752,0.88938 -1.74426,-0.007 -4.55563,-0.17533 -6.03981,-0.13115 -1.48418,0.0442 -2.32721,0.25934 -3.05123,0.30638 -0.64867,0.0421 -1.69777,0.0343 -2.88543,0.1579 v 0 h -3e-5 c -2.02355,0.21064 2.6054,0.61054 4.65065,0.516 3.16747,-0.1464 4.53588,0.12939 7.98849,0.24158 4.41929,0.14359 10.04944,0.78416 13.40397,-1.26747 0.73682,-0.0294 2.31053,0.3825 3.79114,0.28489 m 4.93775,-19.569655 c -0.69057,-0.88535 -1.424,-1.56792 -2.39689,-1.80612 m 2.25763,2.86212 c -1.34037,-0.20283 -2.63273,0.46008 -0.92678,1.00378 m 0.5991,-1.23435 c -3.63321,-0.98886 -1.94499,1.16149 -0.61102,1.29063 m 0.37832,0.56218 c -0.71617,-0.18702 -1.3688,-0.55299 -2.02979,-0.89103 -1.0973,-0.56117 -2.08809,-1.30172 -2.30589,-2.11777 -0.25293,-0.94766 0.88627,-1.83882 2.18386,-1.5964 1.42009,0.26532 1.55496,1.18491 2.1931,1.93944 0.1955,0.23116 0.85328,0.71022 0.92546,0.92602 0.0701,0.20962 0.22625,0.62432 0.50305,0.91792 m 2.99743,8.79291 c -0.016,0.0694 -0.0344,0.13578 -0.0556,0.19876 -1.1454,2.66822 -3.26036,2.63223 -3.81413,3.92566 -0.34585,0.80782 -0.0109,0.80275 -1.94376,3.075365 -0.35331,0.46945 -0.46444,0.79001 -0.87157,1.08372 -0.1098,0.0792 -0.22457,0.14962 -0.34351,0.21205" /><path
         style="font-variation-settings:normal;display:inline;fill:#000000;fill-opacity:1;stroke:#000000;stroke-width:0.0813292;stroke-linecap:round;stroke-linejoin:miter;stroke-miterlimit:4;stroke-dasharray:none;stroke-dashoffset:0;stroke-opacity:1;stop-color:#000000"
         d="m 149.99618,42.299443 c -0.0414,0.79043 0.69949,0.52779 1.12463,0.3782 0.12449,-0.0438 0.27537,-0.18237 0.41347,-0.35395 0.21354,-0.26534 -0.048,-0.53948 -0.24525,-0.5993 -0.94809,-0.28746 -1.26702,0.0823 -1.29285,0.57505 z"
         id="path42735-7"
         sodipodi:nodetypes="sssss" /><ellipse
         style="font-variation-settings:normal;display:inline;fill:#ffffff;fill-opacity:1;fill-rule:evenodd;stroke:#000000;stroke-width:0.0813292;stroke-linecap:round;stroke-linejoin:miter;stroke-miterlimit:4;stroke-dasharray:none;stroke-dashoffset:0;stroke-opacity:1;stop-color:#000000"
         id="path45460-5"
         cx="134.26553"
         cy="80.103859"
         rx="0.26606137"
         ry="0.2018268"
         transform="matrix(0.96529673,-0.26115554,0.26282363,0.96484389,0,0)" /><path
         style="font-variation-settings:normal;display:inline;vector-effect:none;fill:none;fill-opacity:1;stroke:#000000;stroke-width:0.0813292;stroke-linecap:round;stroke-linejoin:miter;stroke-miterlimit:4;stroke-dasharray:none;stroke-dashoffset:0;stroke-opacity:1;-inkscape-stroke:none;stop-color:#000000"
         d="m 153.88242,42.186703 c -0.24049,-0.0279 -0.65945,-0.0319 -1.12343,-0.23573"
         id="path72510-1"
         sodipodi:nodetypes="cc" /><path
         style="font-variation-settings:normal;display:inline;vector-effect:none;fill:none;fill-opacity:1;stroke:#000000;stroke-width:0.0813292;stroke-linecap:round;stroke-linejoin:miter;stroke-miterlimit:4;stroke-dasharray:none;stroke-dashoffset:0;stroke-opacity:1;-inkscape-stroke:none;stop-color:#000000"
         d="m 153.66091,42.005673 c -0.33989,-0.0889 -0.82873,-0.25668 -1.45662,-0.68988"
         id="path72512-8"
         sodipodi:nodetypes="cc" /><path
         style="font-variation-settings:normal;display:inline;vector-effect:none;fill:none;fill-opacity:1;stroke:#000000;stroke-width:0.0813292;stroke-linecap:round;stroke-linejoin:miter;stroke-miterlimit:4;stroke-dasharray:none;stroke-dashoffset:0;stroke-opacity:1;-inkscape-stroke:none;stop-color:#000000"
         d="m 153.75596,42.507953 c -0.45208,0.17168 -1.08111,0.80598 -1.28767,1.03115"
         id="path72516-9-3"
         sodipodi:nodetypes="cc" /><path
         style="font-variation-settings:normal;display:inline;vector-effect:none;fill:none;fill-opacity:1;stroke:#000000;stroke-width:0.0813292;stroke-linecap:round;stroke-linejoin:miter;stroke-miterlimit:4;stroke-dasharray:none;stroke-dashoffset:0;stroke-opacity:1;-inkscape-stroke:none;stop-color:#000000"
         d="m 154.03384,42.577163 c -0.53513,0.69876 -0.70108,0.96554 -0.84501,1.61376"
         id="path72518-6"
         sodipodi:nodetypes="cc" /><path
         style="font-variation-settings:normal;display:inline;vector-effect:none;fill:none;fill-opacity:1;stroke:#000000;stroke-width:0.0813292;stroke-linecap:round;stroke-linejoin:miter;stroke-miterlimit:4;stroke-dasharray:none;stroke-dashoffset:0;stroke-opacity:1;-inkscape-stroke:none;stop-color:#000000"
         d="m 154.35808,42.884383 c -0.56253,0.84556 -0.58919,0.72233 -0.87411,2.93194"
         id="path76116-4"
         sodipodi:nodetypes="cc" /><path
         style="font-variation-settings:normal;display:inline;vector-effect:none;fill:none;fill-opacity:1;stroke:#000000;stroke-width:0.0813292;stroke-linecap:round;stroke-linejoin:miter;stroke-miterlimit:4;stroke-dasharray:none;stroke-dashoffset:0;stroke-opacity:1;-inkscape-stroke:none;stop-color:#000000"
         d="m 153.88885,41.752263 c -0.76963,-0.32124 -1.19762,-0.58062 -1.65097,-1.12922"
         id="path76635-3"
         sodipodi:nodetypes="cc" /><path
         id="path37"
         style="fill:#666666;stroke:none;stroke-width:0.0813298;stroke-linecap:square"
         d="m 176.23678,41.826679 c 0,1.21375 0.97715,2.1909 2.19089,2.1909 h 12.94654 c 1.21375,0 2.1909,-0.97715 2.1909,-2.1909 v -2.36487 h -1.6211 c -0.4768,0 -0.86065,-0.38385 -0.86065,-0.86066 0,-0.47681 0.38386,-0.86065 0.86065,-0.86065 h 1.6211 v -1.52643 h -1.6211 c -0.4768,0 -0.86065,-0.38384 -0.86065,-0.86065 0,-0.47681 0.38386,-0.86066 0.86065,-0.86066 h 1.6211 v -1.5267 h -1.6211 c -0.4768,0 -0.86065,-0.38384 -0.86065,-0.86065 0,-0.47681 0.38386,-0.86065 0.86065,-0.86065 h 1.6211 v -2.36461 c 0,-1.21375 -0.97715,-2.1909 -2.1909,-2.1909 h -12.94654 c -1.21374,0 -2.19089,0.97715 -2.19089,2.1909 v 2.36461 h 1.6211 c 0.47678,0 0.86064,0.38384 0.86064,0.86065 0,0.47681 -0.38384,0.86065 -0.86064,0.86065 h -1.6211 v 1.5267 h 1.6211 c 0.47678,0 0.86064,0.38385 0.86064,0.86066 0,0.47681 -0.38384,0.86065 -0.86064,0.86065 h -1.6211 v 1.52643 h 1.6211 c 1.12643,0 1.12645,1.72131 0,1.72131 h -1.6211 z" /><path
         id="path39"
         style="fill:none;stroke:#cccccc;stroke-width:0.203323;stroke-linecap:square;stroke-dasharray:none"
         d="m 190.1402,40.640674 h -0.97231 v -10.57452 h -1.01875 v 10.57452 h -2.06362 v -10.57452 h -1.07501 v 10.57452 h -3.32502 v -10.57452 h -0.68928 v 10.57452 h -1.33452"
         sodipodi:nodetypes="cccccccccccccc" /><path
         id="path46"
         style="fill:#f0e442;fill-opacity:1;stroke:none;stroke-width:0.345807"
         d="m 193.56511,37.740499 v 1.721342 h -1.6211 c -0.4768,0 -0.86092,-0.383602 -0.86092,-0.860412 0,-0.47681 0.38414,-0.86093 0.86092,-0.86093 z m -1.6211,0.239262 c -0.34341,-1.74e-4 -0.62183,0.278258 -0.62166,0.621668 1.1e-4,0.343208 0.27845,0.621325 0.62166,0.62115 0.34301,-1.12e-4 0.62104,-0.278145 0.62115,-0.62115 1.7e-4,-0.343207 -0.27794,-0.621555 -0.62115,-0.621668 z m 1.6211,-3.487002 v 1.721342 h -1.6211 c -0.4768,0 -0.86092,-0.383602 -0.86092,-0.860412 0,-0.47681 0.38414,-0.86093 0.86092,-0.86093 z m -1.6211,0.239262 c -0.34341,-1.74e-4 -0.62183,0.278258 -0.62166,0.621668 1.1e-4,0.343208 0.27845,0.621325 0.62166,0.62115 0.34301,-1.12e-4 0.62104,-0.278145 0.62115,-0.62115 1.7e-4,-0.343207 -0.27794,-0.621555 -0.62115,-0.621668 z m 1.6211,-3.487304 v 1.721342 h -1.6211 c -0.4768,0 -0.86092,-0.383602 -0.86092,-0.860412 0,-0.47681 0.38414,-0.86093 0.86092,-0.86093 z m -1.6211,0.239262 c -0.34341,-1.74e-4 -0.62183,0.278258 -0.62166,0.621668 1.1e-4,0.343208 0.27845,0.621325 0.62166,0.62115 0.34301,-1.12e-4 0.62104,-0.278145 0.62115,-0.62115 1.7e-4,-0.343207 -0.27794,-0.621555 -0.62115,-0.621668 z m -15.70723,6.25652 v 1.721342 h 1.6211 c 0.4768,0 0.86092,-0.383602 0.86092,-0.860412 0,-0.47681 -0.38414,-0.86093 -0.86092,-0.86093 z m 1.6211,0.239262 c 0.34341,-1.74e-4 0.62183,0.278258 0.62166,0.621668 -1.1e-4,0.343208 -0.27845,0.621325 -0.62166,0.62115 -0.34301,-1.12e-4 -0.62104,-0.278145 -0.62115,-0.62115 -1.7e-4,-0.343207 0.27794,-0.621555 0.62115,-0.621668 z m -1.6211,-3.487002 v 1.721342 h 1.6211 c 0.4768,0 0.86092,-0.383602 0.86092,-0.860412 0,-0.47681 -0.38414,-0.86093 -0.86092,-0.86093 z m 1.6211,0.239262 c 0.34341,-1.74e-4 0.62183,0.278258 0.62166,0.621668 -1.1e-4,0.343208 -0.27845,0.621325 -0.62166,0.62115 -0.34301,-1.12e-4 -0.62104,-0.278145 -0.62115,-0.62115 -1.7e-4,-0.343207 0.27794,-0.621555 0.62115,-0.621668 z m -1.6211,-3.487304 v 1.721342 h 1.6211 c 0.4768,0 0.86092,-0.383602 0.86092,-0.860412 0,-0.47681 -0.38414,-0.86093 -0.86092,-0.86093 z m 1.6211,0.239262 c 0.34341,-1.74e-4 0.62183,0.278258 0.62166,0.621668 -1.1e-4,0.343208 -0.27845,0.621325 -0.62166,0.62115 -0.34301,-1.12e-4 -0.62104,-0.278145 -0.62115,-0.62115 -1.7e-4,-0.343207 0.27794,-0.621555 0.62115,-0.621668 z" /><path
         style="display:inline;fill:none;fill-opacity:1;stroke:#000000;stroke-width:0.325316;stroke-linecap:round;stroke-linejoin:miter;stroke-miterlimit:4;stroke-dasharray:none;stroke-dashoffset:0;stroke-opacity:1;stop-color:#000000"
         d="m 163.96199,35.067853 c -0.27316,0.28071 -0.40217,0.78468 -0.0159,0.84236 0.38625,0.0577 0.54883,-0.259348 1.7666,-1.19578 2.90074,-2.230591 6.6875,2.050335 10.7619,0.618518"
         id="path5595"
         sodipodi:nodetypes="czsc" /></g></g></svg>
